<svg version="1.1" id="Layer_1" xmlns="http://www.w3.org/2000/svg" xmlns:xlink="http://www.w3.org/1999/xlink" x="0px" y="0px"
	 width="100%" viewBox="0 0 488 142" enable-background="new 0 0 488 142" xml:space="preserve">
<path fill="#FFFFFF" opacity="1.000000" stroke="#ffffff" 
	d="
M344.000000,143.000000 
	C229.333374,143.000000 115.166733,143.000000 1.000077,143.000000 
	C1.000051,95.666718 1.000051,48.333431 1.000026,1.000108 
	C163.666565,1.000072 326.333130,1.000072 488.999756,1.000036 
	C488.999847,48.333221 488.999847,95.666443 488.999939,142.999832 
	C440.833344,143.000000 392.666656,143.000000 344.000000,143.000000 
M87.770752,101.020042 
	C88.165924,99.274139 89.344643,97.243057 88.829773,95.828369 
	C85.356705,86.285606 88.539116,79.615402 96.372849,73.681885 
	C100.561234,70.509476 98.138245,62.618496 92.951515,62.519505 
	C82.248863,62.315231 76.053017,57.549213 71.994576,47.838837 
	C69.836975,42.676506 63.395737,43.229446 60.246479,48.040947 
	C59.429714,49.288811 58.666767,50.616013 58.147770,52.007015 
	C55.924885,57.964745 52.418835,61.674282 45.354595,61.621361 
	C41.238106,61.590523 36.326752,61.776711 34.682213,67.148567 
	C33.021694,72.572601 37.290165,75.126976 40.527012,77.666939 
	C45.129074,81.278175 46.268505,85.485153 44.657578,90.829025 
	C44.324154,91.935081 43.884674,93.189873 44.106674,94.247528 
	C44.688023,97.017242 44.803165,100.914940 46.606209,102.125114 
	C48.644768,103.493385 52.330032,102.557327 55.278698,102.342178 
	C56.355125,102.263641 57.462009,101.504097 58.402222,100.839203 
	C63.635929,97.138000 68.812080,96.997345 74.077545,100.787598 
	C75.144142,101.555382 76.462318,101.964684 77.628685,102.604546 
	C81.072021,104.493546 84.298019,104.424904 87.770752,101.020042 
M306.253571,63.511066 
	C302.191437,68.249153 302.243713,70.727119 306.521240,74.988312 
	C307.464783,75.928253 308.350250,76.975769 309.439484,77.711777 
	C314.294464,80.992470 315.290039,85.439178 313.662659,90.791077 
	C313.374115,91.739990 312.962646,92.811584 313.148621,93.715271 
	C313.751465,96.645050 313.823730,100.166779 315.551575,102.265984 
	C317.973297,105.208176 321.775848,104.196747 324.663391,102.153412 
	C331.743652,97.143219 338.685547,96.857056 345.729492,102.099716 
	C346.254456,102.490456 346.899750,102.734001 347.512360,102.990341 
	C353.565033,105.522972 359.420898,101.847107 357.692871,95.684433 
	C355.025635,86.172356 357.407562,79.746330 365.140106,73.914581 
	C369.582275,70.564362 367.215149,62.533421 361.786713,62.487133 
	C351.170166,62.396614 345.281860,57.498592 341.195129,48.103168 
	C338.749969,42.481678 332.199127,43.142647 328.945709,48.645134 
	C327.508118,51.076538 326.141113,53.574051 325.019562,56.161842 
	C323.583771,59.474819 321.160034,60.790932 317.653320,61.132835 
	C314.046265,61.484531 310.496490,62.423393 306.253571,63.511066 
M186.233566,64.338654 
	C184.106506,63.541332 181.991318,62.100281 179.850266,62.060719 
	C171.605499,61.908379 166.315033,58.442108 163.336624,50.483776 
	C162.371979,47.906227 158.952011,45.187202 156.208740,44.592625 
	C152.415192,43.770420 149.864731,47.147892 148.701096,50.630749 
	C146.091827,58.440514 140.775238,62.063129 132.648895,61.968735 
	C128.841888,61.924511 125.751099,63.311443 124.441437,67.204376 
	C123.137428,71.080490 125.320023,73.792587 128.139816,75.698013 
	C134.716888,80.142326 136.599747,85.908005 134.002090,93.296440 
	C133.782806,93.920151 133.427963,94.672623 133.595947,95.225555 
	C134.324905,97.624847 134.575851,100.801277 136.243759,102.106361 
	C137.924728,103.421654 141.219620,103.491760 143.543808,102.958542 
	C146.384476,102.306839 148.829193,99.938202 151.669922,99.275337 
	C154.501022,98.614723 157.669357,98.791664 160.577469,99.275986 
	C162.617523,99.615723 164.512619,101.009956 166.395096,102.070564 
	C169.636063,103.896561 172.895767,104.923615 176.149734,102.291534 
	C179.150970,99.863884 179.395462,96.681396 178.231186,93.227730 
	C175.761612,85.902184 177.138382,79.901924 184.221848,75.865097 
	C184.502640,75.705070 184.701584,75.405586 184.949692,75.183395 
	C188.237885,72.238762 189.067947,68.865341 186.233566,64.338654 
M267.002502,61.516407 
	C260.457855,61.766468 256.455750,58.482075 254.268356,52.512264 
	C253.700684,50.963017 252.854691,49.485371 251.951721,48.094849 
	C248.791733,43.228706 243.380173,42.997036 240.052261,47.742855 
	C238.345688,50.176544 236.995682,52.907185 235.802322,55.642281 
	C234.216812,59.276211 231.639236,61.035778 227.693466,61.129894 
	C225.880981,61.173126 224.087234,61.803303 222.270370,61.904308 
	C218.690033,62.103355 215.594604,63.124817 214.345154,66.804970 
	C213.028656,70.682602 214.714447,73.909424 217.879211,75.858093 
	C224.834381,80.140686 226.176300,86.012619 223.758682,93.309593 
	C223.498398,94.095192 223.279358,94.916779 223.201401,95.736893 
	C222.664932,101.381615 228.172028,106.086853 232.837524,103.114960 
	C241.918762,97.330299 250.015076,97.378540 259.062653,103.153305 
	C263.505920,105.989296 270.001678,101.107399 268.466949,96.209160 
	C265.485596,86.693802 267.480865,79.832069 275.621643,73.818993 
	C280.201965,70.435822 277.901886,63.811485 272.263000,62.320000 
	C270.827942,61.940430 269.300659,61.909710 267.002502,61.516407 
M399.004791,77.532112 
	C404.016968,80.832764 405.293762,85.298935 403.325592,90.897026 
	C402.837250,92.285957 402.766357,93.825142 402.534393,95.300102 
	C401.613739,101.154427 407.147430,106.185661 412.022675,103.103569 
	C421.106262,97.360954 429.154846,97.403778 438.204926,103.132607 
	C442.861023,106.079971 449.257141,101.066055 447.608429,95.780266 
	C444.678680,86.387367 446.913177,79.876076 454.802124,74.029877 
	C459.366089,70.647675 457.194794,62.671089 451.757477,62.534523 
	C441.082764,62.266407 434.906525,57.562778 430.832275,47.894737 
	C428.636353,42.683903 421.422241,42.826786 419.286102,48.040115 
	C415.376099,57.582573 409.307312,62.272163 398.761017,62.533840 
	C393.114685,62.673931 391.368958,69.623947 395.225189,73.943260 
	C396.218536,75.055862 397.376312,76.021622 399.004791,77.532112 
z"/>
<path fill="rgba(255, 216, 0, 0.15)" opacity="1.000000" stroke="none" 
	d="
M87.515144,101.326553 
	C84.298019,104.424904 81.072021,104.493546 77.628685,102.604546 
	C76.462318,101.964684 75.144142,101.555382 74.077545,100.787598 
	C68.812080,96.997345 63.635929,97.138000 58.402222,100.839203 
	C57.462009,101.504097 56.355125,102.263641 55.278698,102.342178 
	C52.330032,102.557327 48.644768,103.493385 46.606209,102.125114 
	C44.803165,100.914940 44.688023,97.017242 44.106674,94.247528 
	C43.884674,93.189873 44.324154,91.935081 44.657578,90.829025 
	C46.268505,85.485153 45.129074,81.278175 40.527012,77.666939 
	C37.290165,75.126976 33.021694,72.572601 34.682213,67.148567 
	C36.326752,61.776711 41.238106,61.590523 45.354595,61.621361 
	C52.418835,61.674282 55.924885,57.964745 58.147770,52.007015 
	C58.666767,50.616013 59.429714,49.288811 60.246479,48.040947 
	C63.395737,43.229446 69.836975,42.676506 71.994576,47.838837 
	C76.053017,57.549213 82.248863,62.315231 92.951515,62.519505 
	C98.138245,62.618496 100.561234,70.509476 96.372849,73.681885 
	C88.539116,79.615402 85.356705,86.285606 88.829773,95.828369 
	C89.344643,97.243057 88.165924,99.274139 87.515144,101.326553 
z"/>
<path fill="rgba(255, 216, 0, 0.15)" opacity="1.000000" stroke="none" 
	d="
M306.587585,63.308193 
	C310.496490,62.423393 314.046265,61.484531 317.653320,61.132835 
	C321.160034,60.790932 323.583771,59.474819 325.019562,56.161842 
	C326.141113,53.574051 327.508118,51.076538 328.945709,48.645134 
	C332.199127,43.142647 338.749969,42.481678 341.195129,48.103168 
	C345.281860,57.498592 351.170166,62.396614 361.786713,62.487133 
	C367.215149,62.533421 369.582275,70.564362 365.140106,73.914581 
	C357.407562,79.746330 355.025635,86.172356 357.692871,95.684433 
	C359.420898,101.847107 353.565033,105.522972 347.512360,102.990341 
	C346.899750,102.734001 346.254456,102.490456 345.729492,102.099716 
	C338.685547,96.857056 331.743652,97.143219 324.663391,102.153412 
	C321.775848,104.196747 317.973297,105.208176 315.551575,102.265984 
	C313.823730,100.166779 313.751465,96.645050 313.148621,93.715271 
	C312.962646,92.811584 313.374115,91.739990 313.662659,90.791077 
	C315.290039,85.439178 314.294464,80.992470 309.439484,77.711777 
	C308.350250,76.975769 307.464783,75.928253 306.521240,74.988312 
	C302.243713,70.727119 302.191437,68.249153 306.587585,63.308193 
z"/>
<path fill="rgba(255, 216, 0, 0.15)" opacity="1.000000" stroke="none" 
	d="
M186.488419,64.638718 
	C189.067947,68.865341 188.237885,72.238762 184.949692,75.183395 
	C184.701584,75.405586 184.502640,75.705070 184.221848,75.865097 
	C177.138382,79.901924 175.761612,85.902184 178.231186,93.227730 
	C179.395462,96.681396 179.150970,99.863884 176.149734,102.291534 
	C172.895767,104.923615 169.636063,103.896561 166.395096,102.070564 
	C164.512619,101.009956 162.617523,99.615723 160.577469,99.275986 
	C157.669357,98.791664 154.501022,98.614723 151.669922,99.275337 
	C148.829193,99.938202 146.384476,102.306839 143.543808,102.958542 
	C141.219620,103.491760 137.924728,103.421654 136.243759,102.106361 
	C134.575851,100.801277 134.324905,97.624847 133.595947,95.225555 
	C133.427963,94.672623 133.782806,93.920151 134.002090,93.296440 
	C136.599747,85.908005 134.716888,80.142326 128.139816,75.698013 
	C125.320023,73.792587 123.137428,71.080490 124.441437,67.204376 
	C125.751099,63.311443 128.841888,61.924511 132.648895,61.968735 
	C140.775238,62.063129 146.091827,58.440514 148.701096,50.630749 
	C149.864731,47.147892 152.415192,43.770420 156.208740,44.592625 
	C158.952011,45.187202 162.371979,47.906227 163.336624,50.483776 
	C166.315033,58.442108 171.605499,61.908379 179.850266,62.060719 
	C181.991318,62.100281 184.106506,63.541332 186.488419,64.638718 
z"/>
<path fill="rgba(255, 216, 0, 0.15)" opacity="1.000000" stroke="none" 
	d="
M267.409119,61.617554 
	C269.300659,61.909710 270.827942,61.940430 272.263000,62.320000 
	C277.901886,63.811485 280.201965,70.435822 275.621643,73.818993 
	C267.480865,79.832069 265.485596,86.693802 268.466949,96.209160 
	C270.001678,101.107399 263.505920,105.989296 259.062653,103.153305 
	C250.015076,97.378540 241.918762,97.330299 232.837524,103.114960 
	C228.172028,106.086853 222.664932,101.381615 223.201401,95.736893 
	C223.279358,94.916779 223.498398,94.095192 223.758682,93.309593 
	C226.176300,86.012619 224.834381,80.140686 217.879211,75.858093 
	C214.714447,73.909424 213.028656,70.682602 214.345154,66.804970 
	C215.594604,63.124817 218.690033,62.103355 222.270370,61.904308 
	C224.087234,61.803303 225.880981,61.173126 227.693466,61.129894 
	C231.639236,61.035778 234.216812,59.276211 235.802322,55.642281 
	C236.995682,52.907185 238.345688,50.176544 240.052261,47.742855 
	C243.380173,42.997036 248.791733,43.228706 251.951721,48.094849 
	C252.854691,49.485371 253.700684,50.963017 254.268356,52.512264 
	C256.455750,58.482075 260.457855,61.766468 267.409119,61.617554 
z"/>
<path fill="rgba(255, 216, 0, 0.15)" opacity="1.000000" stroke="none" 
	d="
M398.731659,77.293480 
	C397.376312,76.021622 396.218536,75.055862 395.225189,73.943260 
	C391.368958,69.623947 393.114685,62.673931 398.761017,62.533840 
	C409.307312,62.272163 415.376099,57.582573 419.286102,48.040115 
	C421.422241,42.826786 428.636353,42.683903 430.832275,47.894737 
	C434.906525,57.562778 441.082764,62.266407 451.757477,62.534523 
	C457.194794,62.671089 459.366089,70.647675 454.802124,74.029877 
	C446.913177,79.876076 444.678680,86.387367 447.608429,95.780266 
	C449.257141,101.066055 442.861023,106.079971 438.204926,103.132607 
	C429.154846,97.403778 421.106262,97.360954 412.022675,103.103569 
	C407.147430,106.185661 401.613739,101.154427 402.534393,95.300102 
	C402.766357,93.825142 402.837250,92.285957 403.325592,90.897026 
	C405.293762,85.298935 404.016968,80.832764 398.731659,77.293480 
z"/>
</svg>
